<?xml version="1.0" standalone="no"?><!DOCTYPE svg PUBLIC "-//W3C//DTD SVG 1.1//EN" "http://www.w3.org/Graphics/SVG/1.1/DTD/svg11.dtd"><svg t="1621253845165" class="icon" viewBox="0 0 1024 1024" version="1.1" xmlns="http://www.w3.org/2000/svg" p-id="3062" xmlns:xlink="http://www.w3.org/1999/xlink" width="200" height="200"><defs><style type="text/css"></style></defs><path d="M512 0c282.784 0 512 229.216 512 512s-229.216 512-512 512S0 794.784 0 512 229.216 0 512 0z m-175.36 467.52H279.168V768h57.472v-300.48z m389.856-69.056h-319.424v44.544h260.16v244.896l0.128 4.288c-0.064 19.296-10.176 28.224-30.336 26.848H601.28v44.512h51.84l6.144 0.064c46.208-0.544 68.608-23.584 67.2-69.056v-296.096z m-116.512 84.608h-211.52v224.864h146.752l5.632 0.064c42.176-0.512 61.888-22.784 59.136-66.88v-158.048z m-58.272 129.12v26.72l0.128 4c0 18.016-9.376 26.304-28.192 24.928h-66.88v-55.68h94.944z m0-89.056v51.2h-94.976v-51.2h94.976z m-181.856-146.912H311.584l5.12 10.016c11.52 23.36 19.168 46.72 22.912 70.08h62.624l-2.976-11.072c-8.096-28.864-17.92-51.872-29.408-69.024zM620.8 256h-64.736l-2.176 8.16c-10.944 37.504-32.512 65.92-64.768 85.344v35.616l9.408-2.688c40-12.224 70.72-32.064 92.064-59.648h30.208l3.36 9.6c5.216 15.84 8.416 31.232 9.6 46.08h58.272l-0.736-5.76c-2.208-13.76-7.68-30.432-16.544-49.92h75.552V282.72H612.16l0.128-1.248c0.256-1.376 0.96-3.2 2.016-5.44L620.8 256z m-230.944 0h-64.768l-2.176 7.872C311.872 300 289.6 327.072 256 345.056v37.824l9.312-2.464c42.624-12.096 73.344-31.296 92.16-57.6h21.568l3.36 9.568c5.184 15.872 8.384 31.232 9.6 46.08h60.448l-2.784-12.192a267.328 267.328 0 0 0-14.528-43.488h69.12V284.96h-125.216l0.96-2.048c1.376-3.104 3.2-7.584 5.504-13.536 1.44-5.92 2.88-10.368 4.32-13.376z" fill="#E48271" p-id="3063"></path></svg>